<?xml version="1.0" encoding="utf-8"?>
<!-- Generator: Adobe Illustrator 24.3.0, SVG Export Plug-In . SVG Version: 6.00 Build 0)  -->
<svg version="1.1" id="Layer_1" xmlns="http://www.w3.org/2000/svg" xmlns:xlink="http://www.w3.org/1999/xlink" x="0px" y="0px"
	 viewBox="0 0 325 62.5882339" style="enable-background:new 0 0 325 62.5882339;" xml:space="preserve">
<style type="text/css">
	.st0{fill:url(#SVGID_1_);}
	.st1{fill:#42ABF3;}
	.st2{fill:url(#SVGID_2_);}
	.st3{fill:url(#SVGID_3_);}
	.st4{fill:#FFFFFF;}
</style>
<linearGradient id="SVGID_1_" gradientUnits="userSpaceOnUse" x1="0" y1="31.6705112" x2="23.1796265" y2="31.6705112">
	<stop  offset="0" style="stop-color:#42ABF3"/>
	<stop  offset="1" style="stop-color:#1876E6"/>
</linearGradient>
<path class="st0" d="M23.1796265,31.6705112c0,4.9784603-9.1868677,9.0142994-14.1653271,9.0142994S0,36.6489716,0,31.6705112
	s4.0358391-9.0142994,9.0142994-9.0142994S23.1796265,26.6920509,23.1796265,31.6705112z"/>
<path class="st1" d="M34.7694397,31.6705112c0,4.9784603,9.1868668,9.0142994,14.1653252,9.0142994
	s9.0143013-4.0358391,9.0143013-9.0142994s-4.0358391-9.0142994-9.0143013-9.0142994S34.7694397,26.6920509,34.7694397,31.6705112z"
	/>
<linearGradient id="SVGID_2_" gradientUnits="userSpaceOnUse" x1="-226.8628387" y1="-1000.4157104" x2="-203.6832123" y2="-1000.4157104" gradientTransform="matrix(0 1 -1 0 -971.4411621 229.5588226)">
	<stop  offset="0" style="stop-color:#42ABF3"/>
	<stop  offset="1" style="stop-color:#1876E6"/>
</linearGradient>
<path class="st2" d="M28.9745331,25.8756046c-4.9784603,0-9.0142994-9.1868668-9.0142994-14.1653261
	s4.0358391-9.0142994,9.0142994-9.0142994s9.0142975,4.0358391,9.0142975,9.0142994S33.9529915,25.8756046,28.9745331,25.8756046z"
	/>
<linearGradient id="SVGID_3_" gradientUnits="userSpaceOnUse" x1="-1015.0862427" y1="-1000.4157104" x2="-991.9066162" y2="-1000.4157104" gradientTransform="matrix(4.489700e-11 -1 -1 -4.489700e-11 -971.4411621 -954.4411621)">
	<stop  offset="0" style="stop-color:#42ABF3"/>
	<stop  offset="1" style="stop-color:#1876E6"/>
</linearGradient>
<path class="st3" d="M28.9745331,37.465416c-4.9784603,0-9.0142994,9.1868706-9.0142994,14.165329
	s4.0358391,9.0142975,9.0142994,9.0142975s9.0142975-4.0358391,9.0142975-9.0142975S33.9529915,37.465416,28.9745331,37.465416z"/>
<g>
	<path class="st1" d="M123.9306641,36.3713226c1.0727539,1.378418,1.6098633,2.9521484,1.6098633,4.7216797
		c0,2.5527344-0.8920898,4.5761719-2.6762695,6.0693359c-1.7836914,1.4951172-4.2714844,2.2412109-7.4624023,2.2412109h-14.2285156
		V18.8576508h13.75c3.1035156,0,5.5327148,0.7109375,7.2885742,2.1323242
		c1.7543945,1.4213867,2.6323242,3.3500977,2.6323242,5.7871094c0,1.7988281-0.4716797,3.2924805-1.4140625,4.4814453
		c-0.9428711,1.1899414-2.1972656,2.0166016-3.7636719,2.4804688
		C121.4355469,34.1164398,122.8569336,34.9938812,123.9306641,36.3713226z M108.6142578,31.2150726h4.8730469
		c1.21875,0,2.1538086-0.2675781,2.8066406-0.8046875c0.652832-0.5366211,0.9790039-1.3271484,0.9790039-2.371582
		s-0.3261719-1.8417969-0.9790039-2.3930664c-0.652832-0.5507813-1.5878906-0.8266602-2.8066406-0.8266602h-4.8730469V31.2150726z
		 M116.9902344,42.5500336c0.6811523-0.5654297,1.0224609-1.3847656,1.0224609-2.4580078s-0.3554688-1.9145508-1.065918-2.5239258
		c-0.7114258-0.609375-1.6904297-0.9135742-2.9370117-0.9135742h-5.3955078v6.7441406h5.4824219
		C115.34375,43.3986664,116.3081055,43.1164398,116.9902344,42.5500336z"/>
	<path class="st1" d="M137.2890625,17.2043304v32.1992188h-7.440918V17.2043304H137.2890625z"/>
	<path class="st1" d="M166.6591797,25.1232758v24.2802734H159.21875v-3.3066406
		c-0.7543945,1.0732422-1.7768555,1.9355469-3.0673828,2.5888672c-1.2910156,0.6523438-2.7197266,0.9785156-4.2861328,0.9785156
		c-1.8569336,0-3.4960938-0.4130859-4.9169922-1.2402344c-1.4213867-0.8261719-2.5234375-2.0224609-3.3066406-3.5888672
		c-0.7832031-1.5673828-1.175293-3.4091797-1.175293-5.5263672V25.1232758h7.3974609v13.1845703
		c0,1.625,0.4199219,2.8867188,1.2617188,3.7851563c0.8413086,0.9003906,1.9726563,1.3496094,3.394043,1.3496094
		c1.4501953,0,2.5957031-0.4492188,3.4375-1.3496094c0.8408203-0.8984375,1.2617188-2.1601563,1.2617188-3.7851563V25.1232758
		H166.6591797z"/>
	<path class="st1" d="M194.7685547,39.0475922h-16.8398438c0.1162109,1.5083008,0.6015625,2.6616211,1.4580078,3.4594727
		c0.8554688,0.7978516,1.9072266,1.1962891,3.1542969,1.1962891c1.8564453,0,3.1474609-0.7832031,3.8730469-2.3496094h7.9189453
		c-0.40625,1.5957031-1.1386719,3.03125-2.1972656,4.3076172c-1.0595703,1.2773438-2.3867188,2.2773438-3.9814453,3.0029297
		c-1.5957031,0.7246094-3.3798828,1.0869141-5.3515625,1.0869141c-2.3789063,0-4.4970703-0.5068359-6.3535156-1.5224609
		c-1.8564453-1.0146484-3.3066406-2.4648438-4.3505859-4.3515625c-1.0449219-1.8847656-1.5664063-4.0898438-1.5664063-6.6137695
		c0-2.5234375,0.5146484-4.7280273,1.5439453-6.6137695c1.0292969-1.8852539,2.4726563-3.3354492,4.3300781-4.3515625
		c1.8554688-1.0146484,3.9882813-1.5229492,6.3964844-1.5229492c2.3496094,0,4.4375,0.4936523,6.265625,1.4794922
		c1.8271484,0.9868164,3.2558594,2.3935547,4.2861328,4.2207031c1.0292969,1.8276367,1.5449219,3.9599609,1.5449219,6.3964844
		C194.8994141,37.5681,194.8554688,38.2936859,194.7685547,39.0475922z M187.2841797,34.9138031
		c0-1.2763672-0.4355469-2.2910156-1.3056641-3.0458984c-0.8701172-0.7539063-1.9580078-1.1313477-3.2626953-1.1313477
		c-1.2480469,0-2.2998047,0.3632813-3.1552734,1.0878906c-0.8554688,0.7255859-1.3857422,1.7553711-1.5878906,3.0893555H187.2841797
		z"/>
	<path class="st4" d="M203.4277344,46.1838226h10.6162109v3.2197266h-14.5761719v-30.328125h3.9599609V46.1838226z"/>
	<path class="st4" d="M222.5947266,48.2726898c-1.8125-1.015625-3.234375-2.4589844-4.2636719-4.3300781
		c-1.0302734-1.8710938-1.5449219-4.0390625-1.5449219-6.5048828c0-2.4370117,0.5292969-4.5908203,1.5878906-6.4619141
		s2.5019531-3.3066406,4.3300781-4.3076172c1.8271484-1.0009766,3.8720703-1.5009766,6.1347656-1.5009766
		s4.3076172,0.5,6.1357422,1.5009766c1.8271484,1.0009766,3.2705078,2.4296875,4.3291016,4.2861328
		s1.5888672,4.0180664,1.5888672,6.4833984c0,2.4658203-0.5439453,4.6337891-1.6318359,6.5048828
		s-2.5605469,3.3144531-4.4169922,4.3300781s-3.9160156,1.5224609-6.1787109,1.5224609
		C226.4306641,49.7951508,224.4072266,49.2883148,222.5947266,48.2726898z M232.6679688,45.3137054
		c1.2470703-0.6669922,2.2558594-1.6679688,3.0244141-3.0029297c0.7685547-1.3339844,1.1533203-2.9589844,1.1533203-4.8730469
		c0-1.9145508-0.3779297-3.5390625-1.1318359-4.8735352c-0.7548828-1.3339844-1.7402344-2.328125-2.9589844-2.9804688
		c-1.2177734-0.652832-2.5380859-0.9790039-3.9589844-0.9790039c-1.4511719,0-2.7783203,0.3261719-3.9814453,0.9790039
		c-1.2041016,0.6523438-2.1689453,1.6464844-2.8935547,2.9804688c-0.7255859,1.3344727-1.0878906,2.9589844-1.0878906,4.8735352
		c0,1.9433594,0.3544922,3.5830078,1.0654297,4.9169922s1.6611328,2.328125,2.8505859,2.9804688
		s2.4941406,0.9785156,3.9160156,0.9785156C230.0859375,46.3137054,231.4208984,45.9806976,232.6679688,45.3137054z"/>
	<path class="st4" d="M250.9433594,28.8220062v14.0541992c0,1.1611328,0.2460938,1.9804688,0.7392578,2.4589844
		S253.03125,46.0529633,254.25,46.0529633h2.9150391v3.3505859h-3.5673828c-2.2050781,0-3.8583984-0.5068359-4.9609375-1.5224609
		s-1.6533203-2.6835938-1.6533203-5.0048828V28.8220062h-3.0898438v-3.2631836h3.0898438v-6.0048828h3.9599609v6.0048828h6.2216797
		v3.2631836H250.9433594z"/>
	<path class="st4" d="M266.7822266,28.8220062v14.0541992c0,1.1611328,0.2460938,1.9804688,0.7392578,2.4589844
		s1.3486328,0.7177734,2.5673828,0.7177734h2.9150391v3.3505859h-3.5673828c-2.2050781,0-3.8583984-0.5068359-4.9609375-1.5224609
		s-1.6533203-2.6835938-1.6533203-5.0048828V28.8220062h-3.0898438v-3.2631836h3.0898438v-6.0048828h3.9599609v6.0048828h6.2216797
		v3.2631836H266.7822266z"/>
	<path class="st4" d="M298.9375,25.5588226v23.8447266h-3.9599609v-3.5244141
		c-0.7548828,1.2177734-1.8056641,2.1689453-3.1542969,2.8496094c-1.3496094,0.6816406-2.8359375,1.0224609-4.4609375,1.0224609
		c-1.8564453,0-3.5244141-0.3837891-5.0039063-1.1523438s-2.6474609-1.921875-3.5019531-3.4599609
		c-0.8564453-1.5371094-1.2841797-3.4082031-1.2841797-5.6123047V25.5588226h3.9160156v13.4453125
		c0,2.3496094,0.5947266,4.1552734,1.7841797,5.4169922s2.8134766,1.8925781,4.8730469,1.8925781
		c2.1171875,0,3.7861328-0.6523438,5.0048828-1.9580078c1.2177734-1.3046875,1.8271484-3.2050781,1.8271484-5.699707v-13.097168
		H298.9375z"/>
	<path class="st4" d="M309.1630859,48.8596039c-1.4511719-0.6230469-2.5966797-1.4941406-3.4375-2.6103516
		c-0.8417969-1.1171875-1.3056641-2.4003906-1.3925781-3.8515625h4.0908203
		c0.1152344,1.1904297,0.6738281,2.1621094,1.6748047,2.9160156s2.3125,1.1308594,3.9375,1.1308594
		c1.5087891,0,2.6982422-0.3330078,3.5683594-1.0009766c0.8701172-0.6669922,1.3056641-1.5078125,1.3056641-2.5234375
		c0-1.0439453-0.4648438-1.8203125-1.3925781-2.328125c-0.9287109-0.5068359-2.3642578-1.0078125-4.3076172-1.5009766
		c-1.7695313-0.4638672-3.2128906-0.9355469-4.3300781-1.4140625c-1.1162109-0.4785156-2.0742188-1.1894531-2.8710938-2.1323242
		c-0.7988281-0.9423828-1.1972656-2.1821289-1.1972656-3.7202148c0-1.2182617,0.3623047-2.3349609,1.0878906-3.3505859
		c0.7246094-1.0151367,1.7548828-1.8198242,3.0898438-2.4150391c1.3339844-0.5942383,2.8564453-0.8916016,4.5683594-0.8916016
		c2.6396484,0,4.7714844,0.6674805,6.3964844,2.0014648c1.6240234,1.3344727,2.4951172,3.1621094,2.6113281,5.4824219h-3.9599609
		c-0.0869141-1.2470703-0.5878906-2.2475586-1.5009766-3.0024414c-0.9140625-0.7539063-2.1396484-1.1313477-3.6767578-1.1313477
		c-1.421875,0-2.5537109,0.3046875-3.3945313,0.9140625c-0.8417969,0.6088867-1.2617188,1.4072266-1.2617188,2.3930664
		c0,0.7832031,0.2539063,1.4291992,0.7617188,1.9365234c0.5068359,0.5078125,1.1455078,0.9135742,1.9140625,1.2182617
		s1.8349609,0.6459961,3.1982422,1.0224609c1.7119141,0.4643555,3.1035156,0.9213867,4.1777344,1.3706055
		c1.0722656,0.4501953,1.9941406,1.1245117,2.7626953,2.0234375c0.7685547,0.8994141,1.1669922,2.0742188,1.1962891,3.5244141
		c0,1.3056641-0.3623047,2.4804688-1.0878906,3.5244141c-0.7246094,1.0439453-1.7480469,1.8642578-3.0673828,2.4589844
		c-1.3203125,0.59375-2.8359375,0.8916016-4.546875,0.8916016
		C312.2529297,49.7951508,310.6132813,49.4826508,309.1630859,48.8596039z"/>
</g>
</svg>
