<?xml version="1.0" encoding="utf-8"?>
<!-- Generator: Adobe Illustrator 24.3.0, SVG Export Plug-In . SVG Version: 6.00 Build 0)  -->
<svg version="1.1" id="Layer_1" xmlns="http://www.w3.org/2000/svg" xmlns:xlink="http://www.w3.org/1999/xlink" x="0px" y="0px"
	 viewBox="0 0 238.3 62.6" style="enable-background:new 0 0 238.3 62.6;" xml:space="preserve">
<style type="text/css">
	.st0{fill:#42ABF3;}
	.st1{fill:#FFFFFF;}
	.st2{fill:url(#SVGID_1_);}
	.st3{fill:url(#SVGID_2_);}
	.st4{fill:url(#SVGID_3_);}
	.st5{fill:url(#SVGID_4_);}
	.st6{opacity:0.51;}
</style>
<g>
	<path class="st0" d="M100.4,33.7c0.7,0.9,1.1,2,1.1,3.2c0,1.8-0.6,3.1-1.8,4.2c-1.2,1-2.9,1.5-5.1,1.5h-9.8v-21h9.4
		c2.1,0,3.8,0.5,5,1.5c1.2,1,1.8,2.3,1.8,4c0,1.2-0.3,2.3-1,3.1c-0.6,0.8-1.5,1.4-2.6,1.7C98.7,32.1,99.6,32.7,100.4,33.7z
		 M89.9,30.1h3.3c0.8,0,1.5-0.2,1.9-0.6c0.4-0.4,0.7-0.9,0.7-1.6c0-0.7-0.2-1.3-0.7-1.6c-0.4-0.4-1.1-0.6-1.9-0.6h-3.3V30.1z
		 M95.6,37.9c0.5-0.4,0.7-1,0.7-1.7c0-0.7-0.2-1.3-0.7-1.7c-0.5-0.4-1.2-0.6-2-0.6h-3.7v4.6h3.8C94.5,38.5,95.2,38.3,95.6,37.9z"/>
	<path class="st0" d="M109.5,20.5v22.1h-5.1V20.5H109.5z"/>
	<path class="st0" d="M129.7,25.9v16.7h-5.1v-2.3c-0.5,0.7-1.2,1.3-2.1,1.8c-0.9,0.4-1.9,0.7-2.9,0.7c-1.3,0-2.4-0.3-3.4-0.9
		s-1.7-1.4-2.3-2.5c-0.5-1.1-0.8-2.3-0.8-3.8v-9.7h5.1v9c0,1.1,0.3,2,0.9,2.6c0.6,0.6,1.4,0.9,2.3,0.9c1,0,1.8-0.3,2.4-0.9
		c0.6-0.6,0.9-1.5,0.9-2.6v-9H129.7z"/>
	<path class="st0" d="M149,35.5h-11.6c0.1,1,0.4,1.8,1,2.4c0.6,0.5,1.3,0.8,2.2,0.8c1.3,0,2.2-0.5,2.7-1.6h5.4
		c-0.3,1.1-0.8,2.1-1.5,3c-0.7,0.9-1.6,1.6-2.7,2.1c-1.1,0.5-2.3,0.7-3.7,0.7c-1.6,0-3.1-0.3-4.4-1c-1.3-0.7-2.3-1.7-3-3
		s-1.1-2.8-1.1-4.5s0.4-3.2,1.1-4.5c0.7-1.3,1.7-2.3,3-3c1.3-0.7,2.7-1,4.4-1c1.6,0,3,0.3,4.3,1c1.3,0.7,2.2,1.6,2.9,2.9
		s1.1,2.7,1.1,4.4C149.1,34.5,149,35,149,35.5z M143.8,32.7c0-0.9-0.3-1.6-0.9-2.1c-0.6-0.5-1.3-0.8-2.2-0.8c-0.9,0-1.6,0.2-2.2,0.7
		c-0.6,0.5-1,1.2-1.1,2.1H143.8z"/>
	<path class="st1" d="M154.9,40.4h7.3v2.2h-10V21.8h2.7V40.4z"/>
	<path class="st1" d="M168.1,41.8c-1.2-0.7-2.2-1.7-2.9-3c-0.7-1.3-1.1-2.8-1.1-4.5c0-1.7,0.4-3.1,1.1-4.4s1.7-2.3,3-3
		c1.3-0.7,2.7-1,4.2-1s3,0.3,4.2,1c1.3,0.7,2.2,1.7,3,2.9c0.7,1.3,1.1,2.8,1.1,4.4s-0.4,3.2-1.1,4.5c-0.7,1.3-1.8,2.3-3,3
		c-1.3,0.7-2.7,1-4.2,1C170.7,42.9,169.3,42.5,168.1,41.8z M175,39.8c0.9-0.5,1.5-1.1,2.1-2.1c0.5-0.9,0.8-2,0.8-3.3
		s-0.3-2.4-0.8-3.3c-0.5-0.9-1.2-1.6-2-2s-1.7-0.7-2.7-0.7c-1,0-1.9,0.2-2.7,0.7s-1.5,1.1-2,2c-0.5,0.9-0.7,2-0.7,3.3
		c0,1.3,0.2,2.5,0.7,3.4s1.1,1.6,2,2c0.8,0.4,1.7,0.7,2.7,0.7C173.2,40.5,174.1,40.2,175,39.8z"/>
	<path class="st1" d="M187.5,28.5v9.6c0,0.8,0.2,1.4,0.5,1.7c0.3,0.3,0.9,0.5,1.8,0.5h2v2.3h-2.4c-1.5,0-2.6-0.3-3.4-1
		c-0.8-0.7-1.1-1.8-1.1-3.4v-9.6h-2.1v-2.2h2.1v-4.1h2.7v4.1h4.3v2.2H187.5z"/>
	<path class="st1" d="M198.4,28.5v9.6c0,0.8,0.2,1.4,0.5,1.7c0.3,0.3,0.9,0.5,1.8,0.5h2v2.3h-2.4c-1.5,0-2.6-0.3-3.4-1
		c-0.8-0.7-1.1-1.8-1.1-3.4v-9.6h-2.1v-2.2h2.1v-4.1h2.7v4.1h4.3v2.2H198.4z"/>
	<path class="st1" d="M220.4,26.2v16.4h-2.7v-2.4c-0.5,0.8-1.2,1.5-2.2,2c-0.9,0.5-1.9,0.7-3.1,0.7c-1.3,0-2.4-0.3-3.4-0.8
		c-1-0.5-1.8-1.3-2.4-2.4c-0.6-1.1-0.9-2.3-0.9-3.9v-9.6h2.7v9.2c0,1.6,0.4,2.9,1.2,3.7c0.8,0.9,1.9,1.3,3.3,1.3
		c1.5,0,2.6-0.4,3.4-1.3c0.8-0.9,1.3-2.2,1.3-3.9v-9H220.4z"/>
	<path class="st1" d="M227.5,42.2c-1-0.4-1.8-1-2.4-1.8s-0.9-1.6-1-2.6h2.8c0.1,0.8,0.5,1.5,1.1,2s1.6,0.8,2.7,0.8
		c1,0,1.9-0.2,2.4-0.7c0.6-0.5,0.9-1,0.9-1.7c0-0.7-0.3-1.2-1-1.6c-0.6-0.3-1.6-0.7-3-1c-1.2-0.3-2.2-0.6-3-1
		c-0.8-0.3-1.4-0.8-2-1.5c-0.5-0.6-0.8-1.5-0.8-2.6c0-0.8,0.2-1.6,0.7-2.3c0.5-0.7,1.2-1.2,2.1-1.7c0.9-0.4,2-0.6,3.1-0.6
		c1.8,0,3.3,0.5,4.4,1.4c1.1,0.9,1.7,2.2,1.8,3.8h-2.7c-0.1-0.9-0.4-1.5-1-2.1s-1.5-0.8-2.5-0.8c-1,0-1.8,0.2-2.3,0.6
		s-0.9,1-0.9,1.6c0,0.5,0.2,1,0.5,1.3c0.3,0.3,0.8,0.6,1.3,0.8c0.5,0.2,1.3,0.4,2.2,0.7c1.2,0.3,2.1,0.6,2.9,0.9s1.4,0.8,1.9,1.4
		c0.5,0.6,0.8,1.4,0.8,2.4c0,0.9-0.2,1.7-0.7,2.4c-0.5,0.7-1.2,1.3-2.1,1.7c-0.9,0.4-1.9,0.6-3.1,0.6
		C229.6,42.9,228.5,42.7,227.5,42.2z"/>
</g>
<linearGradient id="SVGID_1_" gradientUnits="userSpaceOnUse" x1="44.3614" y1="58.6644" x2="23.0237" y2="37.3268" gradientTransform="matrix(1 0 0 1 4.378979e-02 -0.1057)">
	<stop  offset="0" style="stop-color:#42ABF3"/>
	<stop  offset="1" style="stop-color:#1876E6"/>
</linearGradient>
<path class="st2" d="M31.5,28c0,0-13.5,14.3-12.8,20.3c0.5,4.5,12.8,14.4,12.8,14.4s12.3-9.9,12.8-14.4C45,42.3,31.5,28,31.5,28z"/>
<linearGradient id="SVGID_2_" gradientUnits="userSpaceOnUse" x1="18.1747" y1="3.402" x2="40.9278" y2="26.155" gradientTransform="matrix(1 0 0 1 4.378979e-02 -0.1057)">
	<stop  offset="0" style="stop-color:#42ABF3"/>
	<stop  offset="1" style="stop-color:#1876E6"/>
</linearGradient>
<path class="st3" d="M31.5,34.2c0,0,13.5-14.3,12.8-20.3C43.8,9.5,31.5-0.4,31.5-0.4S19.2,9.5,18.7,14C18,19.9,31.5,34.2,31.5,34.2z
	"/>
<linearGradient id="SVGID_3_" gradientUnits="userSpaceOnUse" x1="-4.378979e-02" y1="31.2076" x2="28.3371" y2="31.2076" gradientTransform="matrix(1 0 0 1 4.378979e-02 -0.1057)">
	<stop  offset="0" style="stop-color:#42ABF3"/>
	<stop  offset="1" style="stop-color:#1876E6;stop-opacity:0.9"/>
</linearGradient>
<path class="st4" d="M34.6,31.1c0,0-14.3-13.5-20.3-12.8C9.9,18.8,0,31.1,0,31.1s9.9,12.3,14.4,12.8C20.3,44.6,34.6,31.1,34.6,31.1z
	"/>
<linearGradient id="SVGID_4_" gradientUnits="userSpaceOnUse" x1="62.5673" y1="31.2076" x2="34.7022" y2="31.2076" gradientTransform="matrix(1 0 0 1 4.378979e-02 -0.1057)">
	<stop  offset="0" style="stop-color:#42ABF3"/>
	<stop  offset="1" style="stop-color:#1876E6;stop-opacity:0.9"/>
</linearGradient>
<path class="st5" d="M28.3,31.1c0,0,14.3,13.5,20.3,12.8C53.1,43.4,63,31.1,63,31.1s-9.9-12.3-14.4-12.8
	C42.6,17.6,28.3,31.1,28.3,31.1z"/>
<g class="st6">
	<path class="st1" d="M30,32.6c-0.7-0.6-1.2-1.1-1.5-1.3C26.2,34,23,38,20.9,41.7c3.7-2.1,7.7-5.3,10.4-7.6
		C31.1,33.8,30.6,33.3,30,32.6z"/>
	<path class="st1" d="M30,32.6c-0.7-0.6-1.2-1.1-1.5-1.3C26.2,34,23,38,20.9,41.7c3.7-2.1,7.7-5.3,10.4-7.6
		C31.1,33.8,30.6,33.3,30,32.6z"/>
	<path class="st1" d="M30,29.6c0.6-0.7,1.1-1.2,1.3-1.5c-2.7-2.3-6.7-5.5-10.4-7.6c2.1,3.7,5.3,7.7,7.6,10.4
		C28.8,30.7,29.3,30.2,30,29.6z"/>
	<path class="st1" d="M30,29.6c0.6-0.7,1.1-1.2,1.3-1.5c-2.7-2.3-6.7-5.5-10.4-7.6c2.1,3.7,5.3,7.7,7.6,10.4
		C28.8,30.7,29.3,30.2,30,29.6z"/>
	<path class="st1" d="M31.3,28.2c-0.2,0.3-0.7,0.8-1.3,1.5c0.4-0.4,0.9-0.8,1.5-1.3C31.4,28.3,31.4,28.2,31.3,28.2z"/>
	<path class="st1" d="M31.3,28.2c-0.2,0.3-0.7,0.8-1.3,1.5c0.4-0.4,0.9-0.8,1.5-1.3C31.4,28.3,31.4,28.2,31.3,28.2z"/>
	<path class="st1" d="M31.3,28.2c-0.2,0.3-0.7,0.8-1.3,1.5c0.4-0.4,0.9-0.8,1.5-1.3C31.4,28.3,31.4,28.2,31.3,28.2z"/>
	<path class="st1" d="M30,32.6c0.6,0.7,1.1,1.2,1.3,1.5c0.1-0.1,0.1-0.1,0.2-0.2C30.9,33.4,30.4,33,30,32.6z"/>
	<path class="st1" d="M30,32.6c0.6,0.7,1.1,1.2,1.3,1.5c0.1-0.1,0.1-0.1,0.2-0.2C30.9,33.4,30.4,33,30,32.6z"/>
	<path class="st1" d="M30,32.6c0.6,0.7,1.1,1.2,1.3,1.5c0.1-0.1,0.1-0.1,0.2-0.2C30.9,33.4,30.4,33,30,32.6z"/>
	<path class="st1" d="M33,32.6c-0.6,0.7-1.1,1.2-1.3,1.5c2.7,2.3,6.7,5.5,10.4,7.6C40,38,36.8,34,34.4,31.3
		C34.2,31.5,33.7,32,33,32.6z"/>
	<path class="st1" d="M33,32.6c-0.6,0.7-1.1,1.2-1.3,1.5c2.7,2.3,6.7,5.5,10.4,7.6C40,38,36.8,34,34.4,31.3
		C34.2,31.5,33.7,32,33,32.6z"/>
	<path class="st1" d="M33,29.6c0.7,0.6,1.2,1.1,1.5,1.3c2.3-2.7,5.5-6.7,7.6-10.4c-3.7,2.1-7.7,5.3-10.4,7.6
		C31.9,28.4,32.4,28.9,33,29.6z"/>
	<path class="st1" d="M33,29.6c0.7,0.6,1.2,1.1,1.5,1.3c2.3-2.7,5.5-6.7,7.6-10.4c-3.7,2.1-7.7,5.3-10.4,7.6
		C31.9,28.4,32.4,28.9,33,29.6z"/>
	<path class="st1" d="M31.7,34c0.2-0.3,0.7-0.8,1.3-1.5c-0.4,0.4-0.9,0.8-1.5,1.3C31.5,33.9,31.6,34,31.7,34z"/>
	<path class="st1" d="M31.7,34c0.2-0.3,0.7-0.8,1.3-1.5c-0.4,0.4-0.9,0.8-1.5,1.3C31.5,33.9,31.6,34,31.7,34z"/>
	<path class="st1" d="M31.7,34c0.2-0.3,0.7-0.8,1.3-1.5c-0.4,0.4-0.9,0.8-1.5,1.3C31.5,33.9,31.6,34,31.7,34z"/>
	<path class="st1" d="M33,29.6c-0.6-0.7-1.1-1.2-1.3-1.5c-0.1,0.1-0.1,0.1-0.2,0.2C32,28.8,32.5,29.2,33,29.6z"/>
	<path class="st1" d="M33,29.6c-0.6-0.7-1.1-1.2-1.3-1.5c-0.1,0.1-0.1,0.1-0.2,0.2C32,28.8,32.5,29.2,33,29.6z"/>
	<path class="st1" d="M33,29.6c-0.6-0.7-1.1-1.2-1.3-1.5c-0.1,0.1-0.1,0.1-0.2,0.2C32,28.8,32.5,29.2,33,29.6z"/>
	<path class="st1" d="M33,32.6c0.7-0.6,1.2-1.1,1.5-1.3c-0.1-0.1-0.1-0.1-0.2-0.2C33.8,31.7,33.4,32.2,33,32.6z"/>
	<path class="st1" d="M33,32.6c0.7-0.6,1.2-1.1,1.5-1.3c-0.1-0.1-0.1-0.1-0.2-0.2C33.8,31.7,33.4,32.2,33,32.6z"/>
	<path class="st1" d="M33,32.6c0.7-0.6,1.2-1.1,1.5-1.3c-0.1-0.1-0.1-0.1-0.2-0.2C33.8,31.7,33.4,32.2,33,32.6z"/>
	<path class="st1" d="M28.5,31.3c0.3,0.2,0.8,0.7,1.5,1.3c-0.4-0.4-0.8-0.9-1.3-1.5C28.6,31.2,28.6,31.2,28.5,31.3z"/>
	<path class="st1" d="M28.5,31.3c0.3,0.2,0.8,0.7,1.5,1.3c-0.4-0.4-0.8-0.9-1.3-1.5C28.6,31.2,28.6,31.2,28.5,31.3z"/>
	<path class="st1" d="M28.5,31.3c0.3,0.2,0.8,0.7,1.5,1.3c-0.4-0.4-0.8-0.9-1.3-1.5C28.6,31.2,28.6,31.2,28.5,31.3z"/>
	<path class="st1" d="M30,29.6c-0.7,0.6-1.2,1.1-1.5,1.3c0.1,0.1,0.1,0.1,0.2,0.2C29.2,30.5,29.6,30,30,29.6z"/>
	<path class="st1" d="M30,29.6c-0.7,0.6-1.2,1.1-1.5,1.3c0.1,0.1,0.1,0.1,0.2,0.2C29.2,30.5,29.6,30,30,29.6z"/>
	<path class="st1" d="M30,29.6c-0.7,0.6-1.2,1.1-1.5,1.3c0.1,0.1,0.1,0.1,0.2,0.2C29.2,30.5,29.6,30,30,29.6z"/>
	<path class="st1" d="M34.3,31.1c0.1-0.1,0.1-0.1,0.2-0.2c-0.3-0.2-0.8-0.7-1.5-1.3C33.4,30,33.8,30.5,34.3,31.1z"/>
	<path class="st1" d="M34.3,31.1c0.1-0.1,0.1-0.1,0.2-0.2c-0.3-0.2-0.8-0.7-1.5-1.3C33.4,30,33.8,30.5,34.3,31.1z"/>
	<path class="st1" d="M34.3,31.1c0.1-0.1,0.1-0.1,0.2-0.2c-0.3-0.2-0.8-0.7-1.5-1.3C33.4,30,33.8,30.5,34.3,31.1z"/>
	<path class="st1" d="M33,29.6c-0.4-0.4-0.9-0.8-1.5-1.3c-0.6,0.5-1.1,0.9-1.5,1.3c-0.4,0.4-0.8,0.9-1.3,1.5
		c0.5,0.6,0.9,1.1,1.3,1.5c0.4,0.4,0.9,0.8,1.5,1.3c0.6-0.5,1.1-0.9,1.5-1.3c0.4-0.4,0.8-0.9,1.3-1.5C33.8,30.5,33.4,30,33,29.6z"/>
	<path class="st1" d="M33,29.6c-0.4-0.4-0.9-0.8-1.5-1.3c-0.6,0.5-1.1,0.9-1.5,1.3c-0.4,0.4-0.8,0.9-1.3,1.5
		c0.5,0.6,0.9,1.1,1.3,1.5c0.4,0.4,0.9,0.8,1.5,1.3c0.6-0.5,1.1-0.9,1.5-1.3c0.4-0.4,0.8-0.9,1.3-1.5C33.8,30.5,33.4,30,33,29.6z"/>
	<path class="st1" d="M33,29.6c-0.4-0.4-0.9-0.8-1.5-1.3c-0.6,0.5-1.1,0.9-1.5,1.3c-0.4,0.4-0.8,0.9-1.3,1.5
		c0.5,0.6,0.9,1.1,1.3,1.5c0.4,0.4,0.9,0.8,1.5,1.3c0.6-0.5,1.1-0.9,1.5-1.3c0.4-0.4,0.8-0.9,1.3-1.5C33.8,30.5,33.4,30,33,29.6z"/>
	<path class="st1" d="M33,29.6c-0.4-0.4-0.9-0.8-1.5-1.3c-0.6,0.5-1.1,0.9-1.5,1.3c-0.4,0.4-0.8,0.9-1.3,1.5
		c0.5,0.6,0.9,1.1,1.3,1.5c0.4,0.4,0.9,0.8,1.5,1.3c0.6-0.5,1.1-0.9,1.5-1.3c0.4-0.4,0.8-0.9,1.3-1.5C33.8,30.5,33.4,30,33,29.6z"/>
</g>
<g class="st6">
	<path class="st1" d="M29.4,31.1c-0.1-0.9-0.1-1.6-0.1-2c-3.6,0.3-8.7,0.9-12.8,2c4.1,1.1,9.2,1.7,12.8,2
		C29.3,32.7,29.3,32,29.4,31.1z"/>
	<path class="st1" d="M29.4,31.1c-0.1-0.9-0.1-1.6-0.1-2c-3.6,0.3-8.7,0.9-12.8,2c4.1,1.1,9.2,1.7,12.8,2
		C29.3,32.7,29.3,32,29.4,31.1z"/>
	<path class="st1" d="M31.5,29c0.9-0.1,1.6-0.1,2-0.1c-0.3-3.6-0.9-8.7-2-12.8c-1.1,4.1-1.7,9.2-2,12.8C29.9,28.9,30.6,28.9,31.5,29
		z"/>
	<path class="st1" d="M31.5,29c0.9-0.1,1.6-0.1,2-0.1c-0.3-3.6-0.9-8.7-2-12.8c-1.1,4.1-1.7,9.2-2,12.8C29.9,28.9,30.6,28.9,31.5,29
		z"/>
	<path class="st1" d="M33.4,28.9c-0.3,0-1,0-2,0.1c0.6,0,1.2,0.1,2,0.1C33.5,29,33.5,29,33.4,28.9z"/>
	<path class="st1" d="M33.4,28.9c-0.3,0-1,0-2,0.1c0.6,0,1.2,0.1,2,0.1C33.5,29,33.5,29,33.4,28.9z"/>
	<path class="st1" d="M33.4,28.9c-0.3,0-1,0-2,0.1c0.6,0,1.2,0.1,2,0.1C33.5,29,33.5,29,33.4,28.9z"/>
	<path class="st1" d="M29.4,31.1c-0.1,0.9-0.1,1.6-0.1,2c0.1,0,0.2,0,0.2,0C29.5,32.3,29.4,31.7,29.4,31.1z"/>
	<path class="st1" d="M29.4,31.1c-0.1,0.9-0.1,1.6-0.1,2c0.1,0,0.2,0,0.2,0C29.5,32.3,29.4,31.7,29.4,31.1z"/>
	<path class="st1" d="M29.4,31.1c-0.1,0.9-0.1,1.6-0.1,2c0.1,0,0.2,0,0.2,0C29.5,32.3,29.4,31.7,29.4,31.1z"/>
	<path class="st1" d="M31.5,33.2c-0.9,0.1-1.6,0.1-2,0.1c0.3,3.6,0.9,8.7,2,12.8c1.1-4.1,1.7-9.2,2-12.8
		C33.1,33.3,32.4,33.3,31.5,33.2z"/>
	<path class="st1" d="M31.5,33.2c-0.9,0.1-1.6,0.1-2,0.1c0.3,3.6,0.9,8.7,2,12.8c1.1-4.1,1.7-9.2,2-12.8
		C33.1,33.3,32.4,33.3,31.5,33.2z"/>
	<path class="st1" d="M33.6,31.1c0.1,0.9,0.1,1.6,0.1,2c3.6-0.3,8.7-0.9,12.8-2c-4.1-1.1-9.2-1.7-12.8-2
		C33.7,29.5,33.7,30.2,33.6,31.1z"/>
	<path class="st1" d="M33.6,31.1c0.1,0.9,0.1,1.6,0.1,2c3.6-0.3,8.7-0.9,12.8-2c-4.1-1.1-9.2-1.7-12.8-2
		C33.7,29.5,33.7,30.2,33.6,31.1z"/>
	<path class="st1" d="M29.5,33.3c0.3,0,1,0,2-0.1c-0.6,0-1.2-0.1-2-0.1C29.5,33.2,29.5,33.2,29.5,33.3z"/>
	<path class="st1" d="M29.5,33.3c0.3,0,1,0,2-0.1c-0.6,0-1.2-0.1-2-0.1C29.5,33.2,29.5,33.2,29.5,33.3z"/>
	<path class="st1" d="M29.5,33.3c0.3,0,1,0,2-0.1c-0.6,0-1.2-0.1-2-0.1C29.5,33.2,29.5,33.2,29.5,33.3z"/>
	<path class="st1" d="M33.6,31.1c0.1-0.9,0.1-1.6,0.1-2c-0.1,0-0.2,0-0.2,0C33.5,29.9,33.6,30.5,33.6,31.1z"/>
	<path class="st1" d="M33.6,31.1c0.1-0.9,0.1-1.6,0.1-2c-0.1,0-0.2,0-0.2,0C33.5,29.9,33.6,30.5,33.6,31.1z"/>
	<path class="st1" d="M33.6,31.1c0.1-0.9,0.1-1.6,0.1-2c-0.1,0-0.2,0-0.2,0C33.5,29.9,33.6,30.5,33.6,31.1z"/>
	<path class="st1" d="M31.5,33.2c0.9,0.1,1.6,0.1,2,0.1c0-0.1,0-0.2,0-0.2C32.7,33.1,32.1,33.2,31.5,33.2z"/>
	<path class="st1" d="M31.5,33.2c0.9,0.1,1.6,0.1,2,0.1c0-0.1,0-0.2,0-0.2C32.7,33.1,32.1,33.2,31.5,33.2z"/>
	<path class="st1" d="M31.5,33.2c0.9,0.1,1.6,0.1,2,0.1c0-0.1,0-0.2,0-0.2C32.7,33.1,32.1,33.2,31.5,33.2z"/>
	<path class="st1" d="M29.3,29.1c0,0.3,0,1,0.1,2c0-0.6,0.1-1.2,0.1-2C29.4,29.1,29.4,29.1,29.3,29.1z"/>
	<path class="st1" d="M29.3,29.1c0,0.3,0,1,0.1,2c0-0.6,0.1-1.2,0.1-2C29.4,29.1,29.4,29.1,29.3,29.1z"/>
	<path class="st1" d="M29.3,29.1c0,0.3,0,1,0.1,2c0-0.6,0.1-1.2,0.1-2C29.4,29.1,29.4,29.1,29.3,29.1z"/>
	<path class="st1" d="M31.5,29c-0.9-0.1-1.6-0.1-2-0.1c0,0.1,0,0.2,0,0.2C30.2,29.1,30.9,29,31.5,29z"/>
	<path class="st1" d="M31.5,29c-0.9-0.1-1.6-0.1-2-0.1c0,0.1,0,0.2,0,0.2C30.2,29.1,30.9,29,31.5,29z"/>
	<path class="st1" d="M31.5,29c-0.9-0.1-1.6-0.1-2-0.1c0,0.1,0,0.2,0,0.2C30.2,29.1,30.9,29,31.5,29z"/>
	<path class="st1" d="M33.5,33.1c0.1,0,0.2,0,0.2,0c0-0.3,0-1-0.1-2C33.6,31.7,33.5,32.3,33.5,33.1z"/>
	<path class="st1" d="M33.5,33.1c0.1,0,0.2,0,0.2,0c0-0.3,0-1-0.1-2C33.6,31.7,33.5,32.3,33.5,33.1z"/>
	<path class="st1" d="M33.5,33.1c0.1,0,0.2,0,0.2,0c0-0.3,0-1-0.1-2C33.6,31.7,33.5,32.3,33.5,33.1z"/>
	<path class="st1" d="M33.6,31.1c0-0.6-0.1-1.2-0.1-2c-0.7-0.1-1.4-0.1-2-0.1c-0.6,0-1.2,0.1-2,0.1c-0.1,0.7-0.1,1.4-0.1,2
		c0,0.6,0.1,1.2,0.1,2c0.7,0.1,1.4,0.1,2,0.1c0.6,0,1.2-0.1,2-0.1C33.5,32.3,33.6,31.7,33.6,31.1z"/>
	<path class="st1" d="M33.6,31.1c0-0.6-0.1-1.2-0.1-2c-0.7-0.1-1.4-0.1-2-0.1c-0.6,0-1.2,0.1-2,0.1c-0.1,0.7-0.1,1.4-0.1,2
		c0,0.6,0.1,1.2,0.1,2c0.7,0.1,1.4,0.1,2,0.1c0.6,0,1.2-0.1,2-0.1C33.5,32.3,33.6,31.7,33.6,31.1z"/>
	<path class="st1" d="M33.6,31.1c0-0.6-0.1-1.2-0.1-2c-0.7-0.1-1.4-0.1-2-0.1c-0.6,0-1.2,0.1-2,0.1c-0.1,0.7-0.1,1.4-0.1,2
		c0,0.6,0.1,1.2,0.1,2c0.7,0.1,1.4,0.1,2,0.1c0.6,0,1.2-0.1,2-0.1C33.5,32.3,33.6,31.7,33.6,31.1z"/>
	<path class="st1" d="M33.6,31.1c0-0.6-0.1-1.2-0.1-2c-0.7-0.1-1.4-0.1-2-0.1c-0.6,0-1.2,0.1-2,0.1c-0.1,0.7-0.1,1.4-0.1,2
		c0,0.6,0.1,1.2,0.1,2c0.7,0.1,1.4,0.1,2,0.1c0.6,0,1.2-0.1,2-0.1C33.5,32.3,33.6,31.7,33.6,31.1z"/>
</g>
</svg>
